<svg id="Capa_1" enable-background="new 0 0 512 512" height="512" viewBox="0 0 512 512" width="512" xmlns="http://www.w3.org/2000/svg"><g><g><g><g><g><g><g><g><g><circle cx="256" cy="256" fill="#7584f2" r="256"/></g></g></g></g></g></g></g></g><path d="m511.527 271.687-76.527-76.527-99.515 9.421-110.778 30.539-124.551-52.096-17.438 139.371 189.123 189.123c128.819-7.865 231.898-110.992 239.686-239.831z" fill="#4855b7"/><g><g><path d="m370.386 167.204c-48.782 0-92.108 35.883-114.386 58.535-21.659-22.812-63.385-58.535-114.386-58.535-48.962 0-88.796 39.834-88.796 88.796s39.833 88.796 88.796 88.796c48.782 0 92.108-35.883 114.386-58.535 21.659 22.812 63.386 58.535 114.386 58.535 48.962 0 88.796-39.834 88.796-88.796s-39.834-88.796-88.796-88.796zm-228.772 137.592c-26.906 0-48.796-21.89-48.796-48.796s21.89-48.796 48.796-48.796c26.792 0 51.583 15.866 67.663 29.175 8.282 6.855 15.206 13.79 20.356 19.397-19.075 20.025-54.085 49.02-88.019 49.02zm228.772 0c-26.792 0-51.583-15.866-67.663-29.175-8.282-6.855-15.206-13.79-20.356-19.397 19.076-20.024 54.085-49.019 88.019-49.019 26.906 0 48.796 21.89 48.796 48.796s-21.89 48.795-48.796 48.795z" fill="#ffce00"/></g></g><g><g><path d="m370.386 167.204c-48.782 0-92.108 35.883-114.386 58.535-.07-.073.07.074 0 0v60.522c21.787 22.829 63.733 58.535 114.386 58.535 48.962 0 88.796-39.834 88.796-88.796s-39.834-88.796-88.796-88.796zm0 137.592c-26.792 0-51.583-15.866-67.663-29.175-8.282-6.855-15.206-13.79-20.356-19.397 19.076-20.024 54.085-49.019 88.019-49.019 26.906 0 48.796 21.89 48.796 48.796s-21.89 48.795-48.796 48.795z" fill="#fdba12"/></g></g></g></svg>