<svg id="Layer_1_1_" enable-background="new 0 0 64 64" height="512" viewBox="0 0 64 64" width="512" xmlns="http://www.w3.org/2000/svg"><path d="m55.515 23.752c-2.31-2.285-5.031-3.998-8.07-5.084l-4.8-1.714c-2.786-.995-4.645-3.634-4.645-6.592v-7.362c0-.552-.448-1-1-1h-10c-.552 0-1 .448-1 1v10.726c0 3.609-2.743 6.626-6.336 6.968l-5.8.553c-4.579.436-8.747 3.129-10.682 7.302-.783 1.69-1.182 3.502-1.182 5.344v28.107c1.105 0 2-.895 2-2v-1.586l1.879 1.879c.781.781 2.047.781 2.828 0l-4.707-4.707v-8.451l1.684 1.403c1.553 1.294 2.528 3.129 2.83 5.128.379 2.512 1.678 4.767 3.663 6.355l2.198 1.759c.69-.862.551-2.121-.312-2.811l-.641-.513c-1.644-1.315-2.633-3.233-2.964-5.312-.383-2.404-1.619-4.58-3.493-6.142l-2.965-2.471v-5.245l3.279-5.272c.49-.789 1.07-1.497 1.721-2.117v7.021l-.986 5.918c1.089.182 2.12-.554 2.301-1.644l.287-1.722 1.598 2.13c.883-.663 1.062-1.916.4-2.799l-1.6-2.134v-2.667h2c1.104 0 2-.895 2-2h-4v-3.588c1.592-.92 3.417-1.431 5.335-1.431h.02l8.739.016-2.195 3.171c-3.821 5.52-6.198 11.965-6.882 18.644l-.379 1.511c-.239.95-.72 1.803-1.238 2.635-.545.877-.428 2.015.307 2.749 1.438-1.437 2.457-3.238 2.948-5.208l.282-1.127 3.027-5.449c.371.04.401.044.773.084.536 2.008 1.452 3.913 2.7 5.577l.763 1.016 1.6-1.2-.765-1.02c-1.373-1.831-2.286-3.965-2.662-6.222l-.272-1.633c.694-.987 1.432-1.944 2.216-2.859l.764-.891c.177 2.047.72 4.064 1.638 5.901l.491.982c.494.988 1.696 1.389 2.684.894l-1.386-2.771c-.991-1.983-1.508-4.171-1.508-6.39v-.855l6.108-7.126.509.436c.867.743 1.675 1.544 2.425 2.391l-.013.003c.009.037.877 3.712-.924 7.313-2.031 4.063-3.999 12.858-4.082 13.23l.027.006c1.061.235 2.116-.415 2.375-1.47.268-1.093.641-2.552 1.077-4.089l1.466 1.833c.69.863 1.949 1.003 2.812.313l-3.579-4.476c.533-1.686 1.116-3.296 1.694-4.452.954-1.908 1.278-3.803 1.343-5.336 1.285 1.97 2.289 4.124 2.974 6.408l.813 2.698 1.971 8.869c-.03 2.703-1.476 5.237-3.796 6.629l-.713.428 1.029 1.715c2.203-1.322 3.84-3.412 4.596-5.868l.882-2.866 1.152-9.218c.576-4.608-.063-9.311-1.851-13.599-.169-.406-.362-.797-.561-1.184l2.815 1.083c.186.231.401.496.587.726l2.74 17.358c.112.707.381 1.396.779 1.994l1.284 1.926-.527 2.633c-.217 1.083.486 2.137 1.569 2.354l.526-2.633 1.181 1.772c.672 1.008.672 2.32 0 3.328l-.521.781 1.664 1.109.521-.781c1.12-1.679 1.12-3.867 0-5.547l-4.034-6.053c-.241-.361-.401-.771-.468-1.199l-.845-5.354 2.548 1.274.895-1.789-3.826-1.913-1.372-8.69c3.154 1.798 5.79 4.425 7.567 7.626l1.183 2.13v6.741c0 1.105.895 2 2 2v-10.182c0-5.993-2.225-11.852-6.485-16.066zm-6.248 4.587-5.396-2.076c-1.628-1.989-3.72-3.572-6.144-4.611l-1.333-.571-.787 1.838 1.333.571c3.414 1.463 6.08 4.158 7.509 7.586 1.653 3.967 2.245 8.318 1.712 12.582l-.437 3.495-.766-3.44-.831-2.768c-1.475-4.916-4.313-9.278-8.208-12.617l-1.268-1.087c-.202-.172-.46-.255-.728-.238-.265.021-.511.145-.683.346l-9.442 11.015c-1.741 2.032-3.283 4.249-4.582 6.586l-.165.297c1.12-4.256 2.977-8.31 5.491-11.941l3.279-4.737c.212-.306.236-.703.063-1.033-.17-.328-.511-.536-.882-.536l-10.644-.019c-.008 0-.016 0-.023 0-4.407 0-8.427 2.233-10.755 5.977l-1.58 2.54v-1.605c0-1.148.185-2.283.547-3.373 1.334-4.001 4.909-6.845 9.107-7.245l6.199-.591c4.645-.441 8.147-4.292 8.147-8.958v-9.726h8v6.362c0 3.794 2.4 7.2 5.974 8.476l4.8 1.714c2.458.878 4.688 2.208 6.629 3.955 3.613 3.252 5.887 7.713 6.45 12.493-2.512-3.925-6.218-6.981-10.586-8.661z" fill="#9c5f20"/><path d="m54.071 23.764c-2.028-1.825-4.393-3.236-6.962-4.154l-4.8-1.714c-3.184-1.137-5.309-4.153-5.309-7.534v-7.362h-10v10.726c0 4.124-3.136 7.573-7.242 7.964l-6.199.59c-4.596.438-8.501 3.544-9.961 7.924-.396 1.19-.598 2.435-.598 3.689v5.107l3.429-5.514c2.133-3.43 5.888-5.512 9.927-5.505l10.644.019-3.28 4.737c-3.751 5.42-6.064 11.704-6.72 18.263l3.091-5.564c.601-1.082 1.257-2.131 1.957-3.149l-.048-.287.048.287c.779-1.133 1.615-2.227 2.51-3.272l2.442-2.848v-.167.167l7-8.167 1.268 1.087c3.743 3.208 6.485 7.423 7.902 12.145l.83 2.768 2 9 1.152-9.218c.556-4.444-.058-8.956-1.781-13.09-.544-1.305-1.269-2.511-2.133-3.6l-.238-.092.238.092c-1.553-1.955-3.571-3.52-5.905-4.52l-1.333-.572 1.333.571c2.334 1 4.353 2.565 5.905 4.52l5.669 2.18c4.582 1.762 8.399 5.079 10.783 9.371l1.31 2.358v-1.678c0-5.934-2.518-11.589-6.929-15.558z" fill="#9c5f20"/><g fill="#8a541c"><path d="m47.152 41.782-1.152 9.218-2-9-.831-2.769c-1.416-4.721-4.159-8.937-7.902-12.145l-1.267-1.086-7 8.167-2.442 2.849c-.896 1.045-1.731 2.139-2.51 3.272-.7 1.018-1.356 2.067-1.957 3.149l-2.42 4.356c-.295 1.387-.529 2.789-.671 4.207l3.091-5.564c.601-1.082 1.257-2.131 1.957-3.149.779-1.133 1.615-2.227 2.51-3.272l2.442-2.848 7-8.167 1.268 1.087c3.743 3.208 6.485 7.423 7.902 12.145l.83 2.768 2 9 1.152-9.218c.192-1.539.235-3.086.149-4.623-.032.541-.081 1.082-.149 1.623z"/><path d="m27 25-10.644-.019c-4.039-.007-7.794 2.075-9.927 5.505l-1.845 2.966c-1.035 1.666-1.584 3.587-1.584 5.548l3.429-5.514c2.133-3.43 5.888-5.512 9.927-5.505l4.925.009c2.282.004 4.42-1.114 5.719-2.99z"/><path d="m59.69 35.643c-2.384-4.292-6.201-7.609-10.783-9.371l-5.669-2.18c.865 1.089 1.589 2.294 2.133 3.6.036.085.063.173.098.258l3.438 1.322c4.582 1.762 8.399 5.079 10.783 9.371l1.31 2.357v-1.678c0-.475-.022-.948-.054-1.419z"/></g><path d="m54.071 23.764c-1.708-1.708-3.773-3.015-6.048-3.827l-5.714-2.041c-3.184-1.137-5.309-4.153-5.309-7.534v-5.362c0-1.105-.895-2-2-2h-8c0 1.657 1.343 3 3 3 0 0 1.56-.024 2.941-.066 1.127-.034 2.059.871 2.059 1.999v2.429c0 3.381 2.125 6.397 5.309 7.534l5.714 2.041c2.274.812 4.34 2.119 6.048 3.827 3.921 3.529 6.342 8.392 6.832 13.597.274.419.543.842.788 1.282l1.309 2.357v-.508c0-6.274-2.492-12.292-6.929-16.728z" fill="#ab6823"/></svg>